# xmcd
#
# Track frame offsets:
#	150
#	20618
#	34147
#	53731
#	69302
#	83615
#	101569
#	118236
#
# Disc length: 1764 seconds
#
# Revision: 0
# Processed by: cddbd v1.5.2PL0 Copyright (c) Steve Scherf et al.
# Submitted via: EasyCDDAExtractor 12.0.1.1
#
DISCID=6106e208
DTITLE=Day Of The Dead - Kill Or Be Killed
DYEAR=2008
DGENRE=Instrumental
TTITLE0=Thunderball
TTITLE1=Phantom
TTITLE2=Lost City
TTITLE3=Kill Or Be Killed
TTITLE4=The Dead Ride Out
TTITLE5=Gypsy Veil
TTITLE6=Swamp Siren
TTITLE7=Return To Galaxy Island
EXTD=
EXTT0=
EXTT1=
EXTT2=
EXTT3=
EXTT4=
EXTT5=
EXTT6=
EXTT7=
PLAYORDER=
